# xmcd
#
# Track frame offsets:
#	150
#	29496
#	44784
#	64967
#	90446
#	112838
#	125917
#	148660
#	152766
#	173060
#	180422
#	200328
#
# Disc length: 2995 seconds
#
# Revision: 1
# Processed by: cddbd v1.5.2PL0 Copyright (c) Steve Scherf et al.
# Submitted via: audiograbber 1.83.01
#
DISCID=a80bb10c
DTITLE=Cody - Fractures
DYEAR=2012
DGENRE=Country
TTITLE0=Disharmony
TTITLE1=Grey Birds
TTITLE2=Mirror
TTITLE3=Caroline
TTITLE4=August
TTITLE5=Fractured
TTITLE6=Close The Door
TTITLE7=Cellar
TTITLE8=Rocky Mountains
TTITLE9=Fortælling
TTITLE10=The Ghost Of Today
TTITLE11=Go Home
EXTD=
EXTT0=
EXTT1=
EXTT2=
EXTT3=
EXTT4=
EXTT5=
EXTT6=
EXTT7=
EXTT8=
EXTT9="Story"
EXTT10=
EXTT11=
PLAYORDER=
